<svg width="753" height="568" viewBox="0 0 753 568" fill="none" xmlns="http://www.w3.org/2000/svg">
<rect width="753" height="568" fill="#E5E5E5"/>
<g id="undraw_time_management_30iu 1">
<rect width="753" height="568" fill="white"/>
<g id="background">
<path id="Vector" d="M378.655 544.553C521.293 544.553 636.924 427.328 636.924 282.724C636.924 138.12 521.293 20.8948 378.655 20.8948C236.017 20.8948 120.385 138.12 120.385 282.724C120.385 427.328 236.017 544.553 378.655 544.553Z" fill="#6C63FF"/>
<path id="Vector_2" d="M378.655 490.863C492.044 490.863 583.964 397.676 583.964 282.724C583.964 167.772 492.044 74.5845 378.655 74.5845C265.265 74.5845 173.345 167.772 173.345 282.724C173.345 397.676 265.265 490.863 378.655 490.863Z" fill="#DDE1EC"/>
</g>
<path id="seconds" opacity="0.3" d="M384.458 111.358H372.851V295.227H384.458V111.358Z" fill="#535461"/>
<path id="minutes" d="M554.945 275.369H390.988V290.079H554.945V275.369Z" fill="#535461"/>
<path id="hours" d="M378.443 275.123L275.28 220.354L268.549 233.384L371.712 288.153L378.443 275.123Z" fill="#535461"/>
<path id="pin" d="M378.655 304.788C390.675 304.788 400.419 294.91 400.419 282.724C400.419 270.538 390.675 260.66 378.655 260.66C366.635 260.66 356.89 270.538 356.89 282.724C356.89 294.91 366.635 304.788 378.655 304.788Z" fill="#535461"/>
</g>
</svg>
