<svg width="701" height="474" viewBox="0 0 701 474" fill="none" xmlns="http://www.w3.org/2000/svg">
    <g id="loader" clip-path="url(#clip0)">
        <rect width="701" height="474" fill="white"/>
        <path id="sun" d="M255.069 169.893C284.378 169.893 308.137 141.711 308.137 106.947C308.137 72.1822 284.378 44 255.069 44C225.76 44 202 72.1822 202 106.947C202 141.711 225.76 169.893 255.069 169.893Z" fill="#FF6584"/>
        <g id="landscape">
            <path id="Vector" d="M679.032 447.795C675.912 451.125 672.629 454.237 669.202 457.112C661.068 463.897 652.278 469.503 643.019 473.808C604.545 472.71 547.983 467.11 476.587 464.124C471.262 461.965 465.815 459.628 460.247 457.112C452.879 453.782 445.3 450.122 437.508 446.133C405.148 429.547 371.925 418.766 339.016 412.325C331.944 410.941 324.891 409.756 317.857 408.768C169.252 387.688 32.2114 449.624 16.3402 457.112H14.8098L24.572 434.686L190.677 53.0821L229.522 171.378L241.919 209.139L276.087 153.526L293.729 124.812L374.072 234.069L396.781 174.584L554 326.768L562.768 335.252L571.642 343.845L574.468 346.582L658.52 427.944L679.032 447.795Z" fill="#F2F2F2"/>
            <path id="Vector_2" d="M87.4941 420.73C87.4941 420.73 95.3518 420.443 97.72 418.442C100.088 416.442 109.807 414.054 110.395 417.262C110.982 420.47 122.203 433.216 113.332 433.301C104.461 433.386 92.7189 431.662 90.3553 429.954C87.9918 428.247 87.4941 420.73 87.4941 420.73Z" fill="#A8A8A8"/>
            <path id="Vector_3" opacity="0.1" d="M175.867 129.936L191.911 88.2155L214.126 148.966L194.996 105.05L175.867 129.936Z" fill="black"/>
            <path id="Vector_4" opacity="0.2" d="M113.49 432.185C104.619 432.269 92.8772 430.546 90.5137 428.838C88.7136 427.537 87.9964 422.871 87.7564 420.718C87.5902 420.726 87.4941 420.73 87.4941 420.73C87.4941 420.73 87.9918 428.247 90.3553 429.954C92.7189 431.662 104.461 433.386 113.332 433.301C115.893 433.277 116.777 432.196 116.729 430.595C116.373 431.563 115.396 432.166 113.49 432.185Z" fill="black"/>
            <path id="Vector_5" opacity="0.1" d="M339.016 412.325C331.944 410.942 324.891 409.756 317.857 408.768L241.919 209.139L339.016 412.325Z" fill="black"/>
            <path id="Vector_6" opacity="0.1" d="M276.087 153.526L293.729 137.255L373.949 247.046L292.495 153.358L276.087 153.526Z" fill="black"/>
            <path id="Vector_7" opacity="0.1" d="M374.07 234.066L534.389 416.124L512.461 422.258L374.07 234.066Z" fill="black"/>
            <path id="Vector_8" d="M701 457.478C701 471.656 680.661 474.884 643.019 473.808C604.545 472.71 547.983 467.11 476.587 464.124C449.584 462.997 420.452 462.236 389.376 462.236C195.799 462.236 0 491.638 0 457.478C0 449.427 8.71313 441.741 24.572 434.686C71.5933 413.767 181.421 398.447 312.994 395.981C318.98 395.864 325.009 395.778 331.081 395.724C337.511 395.659 343.984 395.627 350.5 395.629C402.81 395.629 452.447 397.649 497.031 401.273C497.173 401.287 497.309 401.302 497.451 401.309C501.03 401.602 504.574 401.905 508.083 402.217C511.915 402.561 515.706 402.915 519.456 403.278C520.227 403.351 520.999 403.424 521.764 403.505C522.319 403.556 522.874 403.615 523.424 403.673C524.436 403.769 525.448 403.871 526.447 403.981C526.482 403.979 526.518 403.982 526.552 403.988C528.391 404.178 530.218 404.369 532.032 404.559C532.223 404.581 532.414 404.603 532.606 404.617C585.335 410.29 628.913 418.349 658.52 427.944C685.61 436.72 701 446.777 701 457.478Z" fill="#3F3D56"/>
            <path id="Vector_9" d="M43.7426 335.361C43.7426 382.217 68.5247 420.132 99.1505 420.132L43.7426 335.361Z" fill="#3F3D56"/>
            <path id="Vector_10" d="M99.1505 420.132C99.1505 372.75 126.806 334.409 160.983 334.409L99.1505 420.132Z" fill="#6C63FF"/>
            <path id="Vector_11" d="M63.8179 339.609C63.8179 384.117 79.621 420.132 99.1505 420.132L63.8179 339.609Z" fill="#6C63FF"/>
            <path id="Vector_12" d="M99.1505 420.132C99.1505 359.588 131.116 310.597 170.619 310.597L99.1505 420.132Z" fill="#3F3D56"/>
            <path id="Vector_13" d="M470.76 328.774C470.76 375.63 495.542 413.545 526.168 413.545L470.76 328.774Z" fill="#3F3D56"/>
            <path id="Vector_14" d="M526.168 413.545C526.168 366.162 553.823 327.821 588 327.821L526.168 413.545Z" fill="#6C63FF"/>
            <path id="Vector_15" d="M490.836 333.021C490.836 377.529 506.639 413.545 526.168 413.545L490.836 333.021Z" fill="#6C63FF"/>
            <path id="Vector_16" d="M526.168 413.545C526.168 353.001 558.133 304.009 597.636 304.009L526.168 413.545Z" fill="#3F3D56"/>
            <path id="Vector_17" d="M514.512 414.142C514.512 414.142 522.369 413.855 524.738 411.855C527.106 409.855 536.825 407.467 537.412 410.674C538 413.882 549.221 426.629 540.35 426.714C531.478 426.799 519.737 425.075 517.373 423.367C515.009 421.659 514.512 414.142 514.512 414.142Z" fill="#A8A8A8"/>
            <path id="Vector_18" opacity="0.2" d="M540.508 425.597C531.637 425.682 519.895 423.958 517.531 422.25C515.731 420.95 515.014 416.283 514.774 414.13C514.608 414.139 514.512 414.142 514.512 414.142C514.512 414.142 515.009 421.659 517.373 423.367C519.737 425.075 531.478 426.799 540.35 426.714C542.91 426.689 543.795 425.609 543.746 424.008C543.391 424.975 542.414 425.579 540.508 425.597Z" fill="black"/>
            <path id="Vector_19" d="M371.199 35.493C369.155 35.5354 364.476 31.4704 361.567 28.7377C362.909 27.2658 364.359 25.9396 365.901 24.7751C368.246 26.91 372.42 30.3668 374.74 30.2437C378.09 30.0658 374.274 35.4299 371.199 35.493Z" fill="#F2F2F2"/>
        </g>
        <g id="plane">
            <path id="Vector_20" d="M648.608 101.39C645.611 102.702 640.35 103.776 634.259 104.643C617.698 107 595.001 107.837 595.001 107.837C595.001 107.837 478.357 119.313 390.93 76.6339C390.93 76.6339 378.213 68.7243 390.025 58.084C391.84 56.4916 393.771 55.0935 395.794 53.9063C395.794 53.9063 395.843 53.8473 395.939 53.7377C397.281 52.2658 398.732 50.9396 400.273 49.7751C404.802 46.3028 412.45 42.183 421.758 44.049L651.367 88.1017C651.367 88.1017 659.754 96.5068 648.608 101.39Z" fill="#3F3D56"/>
            <path id="Vector_21" d="M602.856 81.4267L650.926 40.9717L672.113 45.3178L651.367 88.1012C651.367 88.1012 603.408 88.5538 602.856 81.4267Z" fill="#3F3D56"/>
            <path id="Vector_22" d="M481.834 56.8518L577.582 25L593.017 28.8251L549.766 51.9031L536.246 69.8415L481.834 56.8518Z" fill="#3F3D56"/>
            <path id="Vector_23" d="M634.259 104.643C617.698 107 595.001 107.837 595.001 107.837C595.001 107.837 478.357 119.313 390.93 76.6339C390.93 76.6339 378.213 68.7243 390.025 58.084L390.065 58.2784C390.065 58.2784 408.929 73.4016 499.064 86.0288L634.259 104.643Z" fill="#6C63FF"/>
            <path id="Vector_24" d="M618.868 103.768L661.678 124.5L672.431 123.083L646.825 100.258C646.825 100.258 615.854 92.4237 618.868 103.768Z" fill="#3F3D56"/>
            <path id="Vector_25" d="M405.572 60.493C403.528 60.5354 398.849 56.4704 395.939 53.7377C397.281 52.2658 398.732 50.9396 400.273 49.7751C402.618 51.91 406.793 55.3668 409.113 55.2437C412.463 55.0658 408.647 60.4299 405.572 60.493Z" fill="#6C63FF"/>
            <path id="Vector_26" d="M600.049 175.437L572.565 177.141L495.295 115.336L480.95 103.862L473.978 98.2856C487.052 85.1789 540.385 103.25 540.385 103.25C541.407 104.273 541.731 105.971 541.684 107.846C541.596 111.361 540.205 115.498 539.668 116.97C539.539 117.325 539.46 117.525 539.46 117.525L600.049 175.437Z" fill="#3F3D56"/>
        </g>
        <g id="moon">
            <path id="Vector_27" d="M71.1263 103C101.019 103 125.253 83.0767 125.253 58.5C125.253 33.9233 101.019 14 71.1263 14C41.2332 14 17 33.9233 17 58.5C17 83.0767 41.2332 103 71.1263 103Z" fill="#E6E6E6"/>
            <path id="Vector_28" d="M65.8024 32.9672C69.2328 32.9672 72.0137 30.681 72.0137 27.8607C72.0137 25.0405 69.2328 22.7543 65.8024 22.7543C62.3721 22.7543 59.5912 25.0405 59.5912 27.8607C59.5912 30.681 62.3721 32.9672 65.8024 32.9672Z" fill="#CBCBCB"/>
            <path id="Vector_29" d="M76.4504 84.0329C79.8808 84.0329 82.6616 81.7466 82.6616 78.9263C82.6616 76.106 79.8808 73.8197 76.4504 73.8197C73.0201 73.8197 70.2392 76.106 70.2392 78.9263C70.2392 81.7466 73.0201 84.0329 76.4504 84.0329Z" fill="#CBCBCB"/>
            <path id="Vector_30" d="M100.408 54.123C102.858 54.123 104.844 52.4899 104.844 50.4755C104.844 48.461 102.858 46.8279 100.408 46.8279C97.9575 46.8279 95.9712 48.461 95.9712 50.4755C95.9712 52.4899 97.9575 54.123 100.408 54.123Z" fill="#CBCBCB"/>
            <path id="Vector_31" d="M49.8307 73.8197C57.6715 73.8197 64.0277 68.5939 64.0277 62.1477C64.0277 55.7014 57.6715 50.4756 49.8307 50.4756C41.9899 50.4756 35.6337 55.7014 35.6337 62.1477C35.6337 68.5939 41.9899 73.8197 49.8307 73.8197Z" fill="#CBCBCB"/>
        </g>
    </g>
    <defs>
        <clipPath id="clip0">
            <rect width="701" height="474" fill="white"/>
        </clipPath>
    </defs>
</svg>
