<svg id="Capa_1" enable-background="new 0 0 512 512" height="512" viewBox="0 0 512 512" width="512" xmlns="http://www.w3.org/2000/svg"><g><g><g><g><g><path d="m60.237 158.022-7.246 21.204c-.869 2.543-3.635 3.9-6.178 3.031-18.915-6.463-29.009-27.036-22.545-45.951l7.246-21.204c.869-2.543 3.635-3.9 6.178-3.031 18.915 6.464 29.009 27.037 22.545 45.951z" fill="#fef5c8"/><g><path d="m40.966 194.833.697 22.397c.084 2.686 2.329 4.796 5.015 4.712 19.979-.622 35.671-17.322 35.049-37.301l-.697-22.397c-.084-2.686-2.329-4.796-5.015-4.712-19.979.623-35.671 17.323-35.049 37.301z" fill="#fee265"/><path d="m49.516 194.567.697 22.397c.084 2.686-2.026 4.932-4.712 5.015-19.98.623-36.68-15.069-37.301-35.048l-.697-22.397c-.084-2.686 2.026-4.932 4.712-5.015 19.979-.623 36.679 15.07 37.301 35.048z" fill="#fcb44d"/></g><g><path d="m54.89 242.664 7.573 22.333c.908 2.678 3.816 4.113 6.494 3.205 19.921-6.756 30.594-28.381 23.839-48.303l-7.573-22.333c-.908-2.678-3.816-4.113-6.494-3.205-19.922 6.756-30.595 28.382-23.839 48.303z" fill="#fef5c8"/><path d="m63.415 239.773 7.573 22.333c.908 2.678-.527 5.586-3.205 6.494-19.921 6.756-41.547-3.917-48.303-23.839l-7.573-22.333c-.908-2.678.527-5.586 3.205-6.494 19.922-6.755 41.548 3.918 48.303 23.839z" fill="#fee265"/></g><g><path d="m79.41 287.365 12.279 20.133c1.473 2.415 4.624 3.178 7.039 1.706 17.959-10.953 23.639-34.391 12.686-52.35l-12.279-20.133c-1.473-2.415-4.624-3.178-7.039-1.706-17.959 10.953-23.639 34.39-12.686 52.35z" fill="#fee265"/><path d="m87.096 282.677 12.279 20.133c1.473 2.415.709 5.566-1.706 7.039-17.959 10.953-41.397 5.273-52.35-12.686l-12.279-20.133c-1.473-2.415-.709-5.566 1.706-7.039 17.959-10.953 41.397-5.273 52.35 12.686z" fill="#fcb44d"/></g><g><path d="m112.775 327.66 16.311 19.178c1.956 2.3 5.407 2.579 7.707.623 17.107-14.55 19.18-40.213 4.63-57.32l-16.311-19.178c-1.956-2.3-5.407-2.579-7.707-.623-17.106 14.549-19.179 40.212-4.63 57.32z" fill="#fef5c8"/><path d="m120.097 321.433 16.311 19.178c1.956 2.3 1.678 5.751-.623 7.707-17.107 14.55-42.77 12.477-57.32-4.63l-16.311-19.178c-1.956-2.3-1.678-5.751.623-7.707 17.107-14.55 42.77-12.477 57.32 4.63z" fill="#fee265"/></g><g><path d="m158.371 359.254 20.551 14.544c2.465 1.744 5.877 1.16 7.621-1.305 12.973-18.332 8.629-43.709-9.702-56.682l-20.551-14.544c-2.465-1.744-5.877-1.16-7.621 1.305-12.973 18.332-8.629 43.709 9.702 56.682z" fill="#fee265"/><path d="m163.923 351.409 20.551 14.544c2.465 1.744 3.049 5.156 1.304 7.621-12.973 18.332-38.351 22.675-56.682 9.702l-20.551-14.544c-2.465-1.744-3.049-5.156-1.304-7.621 12.973-18.331 38.351-22.675 56.682-9.702z" fill="#fcb44d"/></g></g><g><path d="m451.763 158.022 7.246 21.204c.869 2.543 3.635 3.9 6.178 3.031 18.915-6.463 29.009-27.036 22.545-45.951l-7.246-21.204c-.869-2.543-3.635-3.9-6.178-3.031-18.914 6.464-29.008 27.037-22.545 45.951z" fill="#fef5c8"/><g><path d="m471.035 194.833-.697 22.397c-.084 2.686-2.329 4.796-5.015 4.712-19.979-.622-35.671-17.322-35.049-37.301l.697-22.397c.084-2.686 2.329-4.796 5.015-4.712 19.979.623 35.671 17.323 35.049 37.301z" fill="#fee265"/><path d="m462.485 194.567-.697 22.397c-.084 2.686 2.026 4.932 4.712 5.015 19.979.622 36.679-15.07 37.301-35.049l.697-22.397c.084-2.686-2.026-4.932-4.712-5.015-19.98-.622-36.68 15.071-37.301 35.049z" fill="#fcb44d"/></g><g><path d="m457.111 242.664-7.573 22.333c-.908 2.678-3.816 4.113-6.494 3.205-19.921-6.756-30.594-28.381-23.839-48.303l7.573-22.333c.908-2.678 3.816-4.113 6.494-3.205 19.921 6.756 30.594 28.382 23.839 48.303z" fill="#fef5c8"/><path d="m448.585 239.773-7.573 22.333c-.908 2.678.527 5.586 3.205 6.494 19.921 6.756 41.547-3.917 48.303-23.839l7.573-22.333c.908-2.678-.527-5.586-3.205-6.494-19.922-6.755-41.547 3.918-48.303 23.839z" fill="#fee265"/></g><g><path d="m432.591 287.365-12.279 20.133c-1.473 2.415-4.624 3.178-7.039 1.706-17.959-10.953-23.639-34.391-12.686-52.35l12.279-20.133c1.473-2.415 4.624-3.178 7.039-1.706 17.959 10.953 23.639 34.39 12.686 52.35z" fill="#fee265"/><path d="m424.905 282.677-12.279 20.133c-1.473 2.415-.709 5.566 1.706 7.039 17.959 10.953 41.397 5.273 52.35-12.686l12.279-20.133c1.473-2.415.709-5.566-1.706-7.039-17.959-10.953-41.397-5.273-52.35 12.686z" fill="#fcb44d"/></g><g><path d="m399.225 327.66-16.311 19.178c-1.956 2.3-5.407 2.579-7.707.623-17.107-14.55-19.18-40.213-4.63-57.32l16.311-19.178c1.956-2.3 5.407-2.579 7.707-.623 17.107 14.549 19.18 40.212 4.63 57.32z" fill="#fef5c8"/><path d="m391.904 321.433-16.311 19.178c-1.956 2.3-1.678 5.751.623 7.707 17.107 14.55 42.77 12.477 57.32-4.63l16.311-19.178c1.956-2.3 1.678-5.751-.623-7.707-17.107-14.55-42.77-12.477-57.32 4.63z" fill="#fee265"/></g><g><path d="m353.629 359.254-20.551 14.544c-2.465 1.744-5.877 1.16-7.621-1.305-12.973-18.332-8.629-43.709 9.702-56.682l20.551-14.544c2.465-1.744 5.877-1.16 7.621 1.305 12.974 18.332 8.63 43.709-9.702 56.682z" fill="#fee265"/><path d="m348.077 351.409-20.551 14.544c-2.465 1.744-3.049 5.156-1.305 7.621 12.973 18.332 38.351 22.675 56.682 9.702l20.551-14.544c2.465-1.744 3.049-5.156 1.305-7.621-12.973-18.331-38.35-22.675-56.682-9.702z" fill="#fcb44d"/></g></g></g></g><g><path d="m341.017 264.125v213.173c0 3.855-4.317 6.143-7.509 3.97l-77.508-52.704-77.509 52.704c-3.192 2.173-7.509-.115-7.509-3.97v-213.173z" fill="#fc5a95"/><path d="m170.983 264.125v40.667c25.285 15.709 54.502 24.112 85.017 24.112 13.848 0 27.424-1.741 40.488-5.105 8.95-2.305 17.676 4.404 17.676 13.646v130.669l19.344 13.154c3.192 2.173 7.509-.115 7.509-3.97v-213.173z" fill="#fb3a82"/><path d="m341.02 264.122v213.18c0 3.85-4.32 6.14-7.51 3.97l-19.35-13.16-58.16-39.55v-164.44z" fill="#31a7fb"/><path d="m341.02 264.122v213.18c0 3.85-4.32 6.14-7.51 3.97l-19.35-13.16v-130.67c0-9.24-8.72-15.95-17.67-13.64-13.07 3.36-26.64 5.1-40.49 5.1v-64.78z" fill="#1c96f9"/><g><g><g><g><g><g><circle cx="256" cy="167.366" fill="#fcb44d" r="137.508"/><path d="m353.229 264.594c-32.719 32.73-77.837 45.511-120.234 38.354 27.178-4.589 53.251-17.382 74.223-38.354 53.703-53.691 53.703-140.766 0-194.457-20.972-20.972-47.045-33.765-74.223-38.354 42.396-7.157 87.515 5.623 120.234 38.354 53.703 53.691 53.703 140.766 0 194.457z" fill="#fca62f"/></g><g><circle cx="256" cy="167.366" fill="#fee265" r="101.406"/><path d="m327.704 239.071c-24.335 24.335-57.944 33.71-89.428 28.135 19.763-3.479 38.703-12.864 53.964-28.135 39.605-39.605 39.605-103.807 0-143.412-15.261-15.271-34.201-24.656-53.964-28.135 31.484-5.575 65.093 3.81 89.428 28.135 39.606 39.605 39.606 103.806 0 143.412z" fill="#fdd330"/></g></g></g></g></g></g></g></g><g><g><path d="m261.179 121.193 14.604 20.783 24.278 7.467c4.191 1.289 5.834 6.346 3.201 9.852l-15.252 20.312.401 25.398c.069 4.384-4.232 7.51-8.381 6.089l-24.031-8.229-24.031 8.229c-4.148 1.421-8.45-1.705-8.381-6.089l.401-25.398-15.252-20.312c-2.633-3.506-.99-8.563 3.201-9.852l24.278-7.467 14.604-20.783c2.522-3.588 7.838-3.588 10.36 0z" fill="#31a7fb"/></g><g><path d="m303.26 159.3-15.254 20.309.402 25.39c.075 4.389-4.225 7.52-8.375 6.099l-24.032-8.237-24.032 8.237c-4.15 1.421-8.451-1.71-8.388-6.099l.138-8.413c30.923-10.677 48.654-33.187 58.602-52.603l17.744 5.458c4.189 1.295 5.836 6.35 3.195 9.859z" fill="#1c96f9"/></g><g><path d="m511.994 164.765c.211-6.814-5.162-12.531-11.976-12.743-.462-.014-.919-.021-1.377-.021-.549 0-1.094.02-1.639.041.572-6.083-.147-12.23-2.173-18.159l-7.246-21.205c-2.205-6.452-9.251-9.906-15.699-7.703-19.579 6.69-31.336 25.99-29.334 45.747-2.079-.376-4.192-.619-6.331-.685-3.319-.094-6.446 1.086-8.854 3.349s-3.789 5.327-3.891 8.627l-.697 22.398c-.059 1.875.005 3.758.185 5.618-1.485 1.397-2.615 3.145-3.287 5.13l-7.573 22.332c-1.293 3.811-2.073 7.747-2.329 11.727-1.292.946-2.427 2.149-3.311 3.599l-12.278 20.133c-1.675 2.746-3.041 5.636-4.096 8.633-3.338.249-6.579 1.776-8.913 4.521l-16.31 19.177c-1.993 2.342-3.746 4.857-5.249 7.509-2.931-.175-5.81.636-8.24 2.356l-2.86 2.024v-18.149c3.445-2.859 6.792-5.892 10.02-9.119 56.538-56.539 56.538-148.533 0-205.072-51.589-51.589-133.87-56.78-191.392-12.074-3.271 2.542-3.861 7.254-1.319 10.524s7.254 3.861 10.524 1.319c51.564-40.075 125.328-35.415 171.579 10.836 50.69 50.69 50.69 133.169 0 183.859-50.689 50.689-133.168 50.688-183.858 0-45.276-45.276-50.68-117.28-13.055-168.634.83-.486 1.579-1.142 2.192-1.958 2.489-3.311 1.832-8.005-1.479-10.494l-.313-.252c-1.575-1.247-3.585-1.809-5.58-1.563-1.995.248-3.806 1.285-5.029 2.88-44.028 57.432-38.586 139.384 12.658 190.627 3.227 3.227 6.574 6.26 10.019 9.119v18.15l-2.86-2.024c-2.43-1.72-5.31-2.531-8.24-2.356-1.502-2.652-3.254-5.167-5.246-7.509l-16.312-19.179c-2.336-2.745-5.578-4.271-8.916-4.519-1.056-3-2.421-5.894-4.093-8.634l-12.279-20.133c-.873-1.432-1.998-2.65-3.311-3.613-.258-3.974-1.036-7.905-2.327-11.711l-7.573-22.332c-.675-1.991-1.809-3.744-3.3-5.143.18-1.86.256-3.734.197-5.607l-.697-22.397c-.212-6.815-5.919-12.177-12.745-11.976-2.146.067-4.257.304-6.329.67 1.994-19.752-9.761-39.043-29.335-45.732-3.125-1.067-6.48-.855-9.446.6-2.965 1.455-5.187 3.978-6.254 7.103l-7.246 21.205c-1.999 5.85-2.714 12.06-2.153 18.163-1.005-.038-2.015-.055-3.036-.024-3.302.103-6.366 1.485-8.627 3.893s-3.451 5.551-3.349 8.853l.697 22.397c.27 8.662 3.106 16.956 8.02 23.895-1.357 1.12-2.481 2.515-3.283 4.14-1.492 3.023-1.718 6.446-.635 9.639l7.573 22.333c2.782 8.203 7.725 15.276 14.273 20.621-2.377 3.908-2.555 8.976-.014 13.142l12.278 20.134c3.831 6.282 9.101 11.49 15.303 15.248-1.639 4.286-.954 9.316 2.223 13.052l16.311 19.178c6.752 7.939 15.94 13.429 25.994 15.734.002.723.052 1.45.176 2.178.584 3.414 2.463 6.396 5.291 8.397l20.551 14.543c8.321 5.889 17.981 8.897 27.747 8.897 3.665 0 7.343-.44 10.973-1.294v80.294c0 4.571 2.51 8.739 6.55 10.877 4.04 2.139 8.898 1.871 12.678-.701l73.288-49.84 73.288 49.841c2.085 1.417 4.496 2.135 6.918 2.135 1.971 0 3.948-.475 5.761-1.434 4.04-2.138 6.55-6.306 6.55-10.877v-29.722c0-4.142-3.357-7.5-7.5-7.5s-7.5 3.358-7.5 7.5v24.635l-70.017-47.617v-112.485c24.445-1.255 48.627-8.65 70.017-22.182v122.253c0 4.142 3.357 7.5 7.5 7.5s7.5-3.358 7.5-7.5v-15.178c3.629.853 7.306 1.292 10.971 1.292 9.768 0 19.431-3.008 27.749-8.895l20.552-14.544c2.827-2.001 4.705-4.983 5.29-8.396.124-.726.174-1.453.176-2.175 10.055-2.299 19.226-7.778 25.994-15.737l16.31-19.177c2.245-2.639 3.328-5.993 3.049-9.446-.101-1.256-.383-2.468-.822-3.613 6.204-3.767 11.487-8.989 15.3-15.243l12.278-20.133c2.542-4.168 2.364-9.238-.016-13.147 6.551-5.355 11.502-12.444 14.275-20.618l7.573-22.333c1.083-3.192.857-6.616-.635-9.639-.8-1.622-1.921-3.015-3.275-4.134 4.94-6.935 7.74-15.159 8.011-23.901zm-348.51 150.782v26.773c-4.033-2.209-8.316-3.815-12.743-4.784-3.568-9.654-2.501-20.21 2.925-28.937zm-27.773-20.547c1.801 2.118 3.303 4.443 4.513 6.91-4.244 7.342-6.429 15.65-6.465 24.011l-7.949-9.347c-4.306-5.063-9.443-9.013-15.041-11.82-1.037-10.125 2.666-20.278 9.989-27.336zm-30.701-34.242c1.506 2.469 2.634 5.119 3.388 7.875-4.699 5.098-8.194 11.129-10.337 17.621l-4.563-7.482c-3.185-5.222-7.297-9.663-12.099-13.155.575-9.2 5.173-17.525 12.618-22.884zm-80.497-54.26c-5.393-5.179-8.583-12.276-8.817-19.8l-.611-19.645c14.625.88 26.47 12.823 26.935 27.749l.442 14.202c-5.798-2.051-11.881-2.894-17.949-2.506zm54.4-4.184 6.781 19.994c.77 2.271 1.266 4.605 1.49 6.963-5.981 3.863-10.854 8.946-14.381 14.833l-2.285-6.739c-1.964-5.793-5.005-11.027-8.927-15.485 2.571-8.857 8.866-15.963 17.322-19.566zm-4.683-17.437c.033 1.068.004 2.135-.079 3.196-6.601 2.609-12.366 6.617-16.97 11.686l-.169-5.425c-.183-5.866-1.527-11.425-3.793-16.474 4.663-7.041 12.07-11.614 20.4-12.63zm-42.865-46.144 6.355-18.599c13.376 5.98 20.249 21.333 15.419 35.464l-.695 2.033c-2.994 2.052-5.737 4.486-8.161 7.261-3.836-3.851-8.375-6.992-13.405-9.206-1.563-5.579-1.412-11.398.487-16.953zm-11.562 83.626c7.067-1.809 14.467-1.046 21.079 2.216 7.327 3.616 12.807 9.869 15.431 17.606l5.18 15.274c-7.104-1.102-14.264-.515-21.007 1.691-6.558-3.701-11.464-9.605-13.902-16.794zm20.926 52.874c6.5-3.313 13.887-4.187 21.052-2.452 7.941 1.924 14.657 6.826 18.911 13.802l7.965 13.061c-7.79.069-15.593 2.008-22.672 5.887-5.901-2.478-10.904-6.763-14.264-12.273zm43.449 63.595-14.954-17.583c13.894-10.435 33.753-8.363 45.16 5.046l10.748 12.637c-7.018 2.335-13.342 6.24-18.578 11.444-8.747-.754-16.654-4.817-22.376-11.544zm49.251 38.326-18.841-13.333c10.879-13.548 30.633-16.458 45.003-6.289l3.893 2.754v21.115c-10.133 3.54-21.195 2.023-30.055-4.247zm45.055 95.054v-182.283c21.389 13.532 45.572 20.927 70.017 22.182v112.485zm291.054-263.177.443-14.23c.465-14.926 12.31-26.87 26.936-27.749l-.611 19.645c-.237 7.589-3.368 14.587-8.827 19.813-6.173-.38-12.264.517-17.941 2.521zm-30.369 35.156c-3.54-5.934-8.415-11.071-14.353-14.914.224-2.358.719-4.693 1.49-6.965l6.78-19.995c8.463 3.607 14.767 10.727 17.333 19.596-3.865 4.384-6.947 9.583-8.938 15.454zm19.691-88.589c-4.828-14.131 2.045-29.483 15.42-35.464l6.356 18.599c1.895 5.547 2.038 11.379.472 16.966-5.035 2.219-9.581 5.362-13.419 9.222-2.403-2.726-5.123-5.137-8.097-7.179zm-20.478 9.631c8.359 1.013 15.733 5.582 20.393 12.633-2.265 5.048-3.604 10.609-3.786 16.473l-.169 5.426c-4.6-5.066-10.36-9.072-16.951-11.681-.084-1.063-.132-2.132-.099-3.203zm-31.392 95.529 10.991-18.022c7.386 5.346 12.036 13.808 12.613 22.92-4.726 3.431-8.868 7.826-12.094 13.116l-4.564 7.484c-2.142-6.492-5.635-12.524-10.33-17.619.755-2.757 1.875-5.403 3.384-7.879zm-15.747 16.66c7.317 7.055 11.028 17.213 9.992 27.335-5.6 2.807-10.737 6.757-15.044 11.822l-7.933 9.328c-.034-8.348-2.221-16.639-6.48-23.994 1.21-2.466 2.711-4.79 4.513-6.908zm-32.911 31.182c5.358 8.661 6.42 19.384 2.911 28.939-4.421.969-8.698 2.575-12.727 4.781v-26.773zm20.241 68.554c-8.856 6.267-19.924 7.786-30.056 4.249v-21.117l3.894-2.755c7.229-5.118 16.021-7.112 24.752-5.618 8.06 1.379 15.178 5.58 20.251 11.907zm49.25-38.326c-5.648 6.64-13.721 10.787-22.37 11.55-5.237-5.207-11.563-9.114-18.584-11.45l10.747-12.637c11.406-13.411 31.267-15.481 45.16-5.046zm32.456-45.57c-3.4 5.575-8.327 9.773-14.289 12.259-7.072-3.87-14.866-5.805-22.647-5.874l7.965-13.061c8.365-13.717 25.873-18.516 39.963-11.349zm25.138-50.905c-2.432 7.17-7.36 13.098-13.924 16.801-6.878-2.232-14.068-2.746-20.993-1.676l5.187-15.297c5.159-15.215 21.195-23.727 36.509-19.822z"/><path d="m275.596 274.497c21.826-3.974 41.68-14.39 57.413-30.123 42.461-42.462 42.461-111.554 0-154.016-20.57-20.569-47.919-31.897-77.009-31.897s-56.438 11.328-77.008 31.898c-20.57 20.569-31.898 47.918-31.898 77.008 0 29.089 11.328 56.438 31.898 77.008 16.042 16.042 36.307 26.533 58.603 30.337.427.073.852.108 1.271.108 3.588 0 6.76-2.583 7.384-6.239.697-4.083-2.048-7.958-6.131-8.655-19.217-3.279-36.686-12.325-50.52-26.158-17.736-17.737-27.504-41.318-27.504-66.401s9.768-48.665 27.504-66.401 41.318-27.505 66.401-27.505 48.665 9.768 66.401 27.504c36.613 36.614 36.613 96.188.001 132.803-13.567 13.566-30.682 22.547-49.494 25.971-4.074.742-6.776 4.647-6.035 8.722.742 4.075 4.645 6.777 8.723 6.036z"/><path d="m221.788 216.294c2.393 1.738 5.249 2.64 8.135 2.64 1.504 0 3.017-.245 4.475-.745l21.601-7.397 21.6 7.396c4.256 1.459 8.971.75 12.611-1.895s5.771-6.909 5.699-11.407l-.359-22.83 13.71-18.258c2.701-3.598 3.484-8.3 2.094-12.578-1.39-4.279-4.787-7.623-9.087-8.946l-21.824-6.712-13.127-18.681s0 0-.001 0c-2.587-3.681-6.817-5.878-11.316-5.878s-8.729 2.198-11.315 5.879l-13.128 18.681-21.823 6.712c-4.301 1.322-7.698 4.667-9.088 8.946s-.607 8.981 2.094 12.578l13.71 18.258-.36 22.829c-.072 4.498 2.059 8.763 5.699 11.408zm-6.056-60.172 22.688-6.978c1.591-.489 2.974-1.494 3.931-2.856l13.648-19.421 13.646 19.421c.957 1.362 2.341 2.367 3.932 2.856l22.688 6.978-14.253 18.981c-1 1.331-1.528 2.957-1.502 4.622l.374 23.733-22.456-7.69c-.788-.27-1.609-.404-2.43-.404s-1.642.135-2.43.404l-22.456 7.69.374-23.733c.026-1.665-.502-3.291-1.501-4.622z"/></g></g></g></svg>